<svg width="1080" height="1080" viewBox="0 0 1080 1080" fill="none" xmlns="http://www.w3.org/2000/svg">
<path d="M180 0H0V1080H180V0Z" fill="#238647"/>
<path d="M270 0H90V1080H270V0Z" fill="#2F9B47"/>
<path d="M360.01 0H180.01V1080H360.01V0Z" fill="#62B64F"/>
<path d="M450 0H270V1080H450V0Z" fill="#89CC53"/>
<path d="M540 0H360V1080H540V0Z" fill="#3DB8AD"/>
<path d="M630.01 0H450.01V1080H630.01V0Z" fill="#3394D7"/>
<path d="M720 0H540V1080H720V0Z" fill="#2872BC"/>
<path d="M810 0H630V1080H810V0Z" fill="#1D5C84"/>
<path d="M900 0H720V1080H900V0Z" fill="#993233"/>
<path d="M990 0H810V1080H990V0Z" fill="#E13030"/>
<path d="M1080 0H900V1080H1080V0Z" fill="#F28825"/>
<path d="M1079.99 0H989.99V1080H1079.99V0Z" fill="#F5C836"/>
</svg>
